<svg width="236.13806mm" height="250.31976mm" viewBox="0 0 236.13806 250.31976" xmlns="http://www.w3.org/2000/svg">
    <g paint-order="fill markers stroke">
        <path style="-inkscape-stroke:none" d="m -908.21045,5283.6586 c -0.0586,-8e-4 -0.11599,0 -0.17156,0.01 -1.09167,0.1338 -8.54603,4.8507 -9.94616,5.3717 0,0 -4.319,14.0565 -2.05828,13.1 0.37179,-0.1573 17.96786,-11.9646 17.5979,-13.3397 -0.40801,-1.5167 -3.60584,-5.1156 -5.4219,-5.1408 z m 43.90172,12.0142 c -4.49006,2.6783 -8.21063,8.7115 -11.14144,12.3311 -1.76875,2.1209 1.51111,5.4121 3.39256,5.641 1.88143,0.2286 11.72538,-6.887 11.72538,-6.887 0,0 -2.83887,-11.0597 -3.9765,-11.0851 z m 59.87128,62.7275 c -2.70163,2.5942 -6.15958,6.8917 -5.36712,9.0258 0.79248,2.1339 2.8927,4.5554 4.69378,4.4509 1.80107,-0.1045 7.06055,-4.4979 7.06055,-4.4979 z m -46.20958,4.4467 c -3.42209,-0.021 -6.55581,5.3557 -10.87841,8.8289 l 0.64854,12.7207 c 0,0 5.511,-3.8289 8.14059,-6.9463 2.62959,-3.1173 7.31268,-9.1217 7.42073,-10.419 0.10809,-1.2972 -1.9094,-4.1633 -5.33145,-4.1843 z m 101.70593,56.0777 c -5.41123,13.5552 -17.17228,22.3976 -23.60527,35.2935 -0.8082,1.7068 3.34572,6.752 6.50502,7.2357 3.15928,0.4836 5.3565,-3.7227 8.76071,-7.3499 3.40424,-3.6274 15.52257,-23.9923 15.52257,-23.9923 z m -40.119,2.234 c -0.13327,5e-4 -0.27213,0.01 -0.41754,0.029 -2.32661,0.313 -6.61277,3.7697 -8.32714,4.6798 l -2.05052,16.4166 c 0,0 9.84788,-7.7153 12.4194,-9.8775 2.57157,-2.1622 5.15064,-5.8125 2.17041,-8.3028 -1.10537,-0.9237 -1.79556,-2.9534 -3.79461,-2.9456 z" fill="#ffc573" transform="translate(38.785135,74.82095) translate(722.56059,-5337.7044) translate(24.947078,2.6161333) translate(157.83546,5.5604752)"/>
        <path style="-inkscape-stroke:none" d="m -897.51497,5273.9584 c -0.0135,-9e-4 -0.0252,-4e-4 -0.0351,10e-4 -0.63445,0.089 -8.1095,6.0205 -9.13278,7.6063 -1.32609,2.0551 3.16775,5.835 4.56045,6.0358 2.88769,0.4161 13.28136,-9.0243 13.28136,-9.0243 0,0 -7.82423,-4.5611 -8.67389,-4.6188 z m 20.39617,36.7042 c -0.94315,-0.018 -1.94806,0.3335 -2.8081,1.1705 -1.61891,1.5756 -15.13889,14.8538 -16.53904,16.3277 -1.40015,1.474 -11.78263,12.8902 -14.27665,15.2156 l 8.61963,3.8375 c 0,0 11.65432,-9.9372 14.30145,-13.0122 2.64715,-3.0749 14.04095,-15.0771 15.02544,-17.3772 0.98449,-2.2997 -0.84263,-4.2367 -2.1115,-5.3294 -0.59479,-0.5122 -1.37904,-0.8163 -2.21123,-0.8325 z m 38.17906,38.0199 -8.21293,10.0221 c -2.05324,2.155 -1.87314,3.3892 -0.61237,4.498 1.26076,1.1089 3.27814,2.6782 5.79965,1.5694 2.52152,-1.1089 13.58005,-14.8968 13.58005,-14.8968 z m 27.2433,20.6437 c -1.09971,-0.013 -2.11151,0.2664 -2.78691,0.8863 -1.8011,1.6528 -11.02245,12.595 -12.21114,13.934 -1.18872,1.3391 -14.01287,16.3818 -17.75912,19.9595 l 12.62868,4.8581 c 0,0 15.52523,-17.9716 19.34353,-22.7418 3.81833,-4.7702 7.73891,-12.3732 5.86579,-14.6327 -1.17072,-1.4122 -3.24798,-2.2425 -5.08083,-2.2634 z m 30.76608,38.4189 c -1.54292,1.7783 -6.11737,7.7399 -7.17475,9.3994 -1.99968,3.1383 2.19723,7.6346 5.13612,7.5065 2.93888,-0.128 6.83232,-5.7976 10.19937,-9.1586 2.18115,-2.1773 5.45342,-7.4662 5.45342,-7.4662 z m 6.9479,50.2816 c -1.44115,-0.028 -2.68417,0.5343 -3.39669,1.4211 -1.20005,1.4936 -7.25409,7.2469 -9.53172,9.2667 l 11.35538,6.7019 c 0,0 6.6715,-6.3051 8.41034,-9.7333 1.73883,-3.428 -1.08728,-5.0601 -3.70779,-6.6817 -1.06457,-0.6588 -2.14348,-0.9552 -3.12952,-0.9747 z" fill="#ff8f8f" transform="translate(38.785135,74.82095) translate(722.56059,-5337.7044) translate(24.947078,2.6161333) translate(157.83546,5.5604752)"/>
        <path style="-inkscape-stroke:none" d="m -881.24413,5282.5093 c 0,0 -4.50265,5.6361 -6.64663,7.2244 -2.14396,1.5883 -12.15834,12.8358 -14.45544,14.7164 -2.29711,1.8804 -2.90184,3.6424 -2.42053,4.7733 0.4813,1.1311 2.74364,3.697 4.408,3.7088 1.90219,0.014 9.75556,-6.4093 12.55582,-9.3446 2.8003,-2.9353 15.36703,-14.6591 15.36703,-14.6591 z m 7.68738,54.2354 c -1.74221,-0.01 -4.28947,1.0067 -5.65133,2.6934 -1.81581,2.2489 -5.04075,5.8899 -7.81916,8.6982 0,0 12.04525,1.5149 12.57029,1.5529 0.52507,0.038 6.23512,-6.506 5.92884,-8.2724 -0.30628,-1.7661 -2.31607,-3.3477 -3.62872,-4.3134 -0.32816,-0.2415 -0.81918,-0.3566 -1.39992,-0.3587 z m 52.5632,13.5186 c 0,0 -4.86688,6.0411 -8.72505,10.4035 -2.95737,3.3439 -4.805,8.5624 -0.85886,10.958 3.94614,2.3954 7.56181,0.6625 9.35809,-1.5875 1.79631,-2.2497 13.48703,-16.2347 13.48703,-16.2347 z m 14.86266,39.4978 c -3.62812,-0.019 -7.84717,5.2648 -9.32294,7.1469 -1.657,2.1132 -7.45652,9.3519 -10.5544,12.4065 l 11.95948,0.2299 c 0,0 8.42914,-8.18 10.55439,-11.9879 2.1253,-3.8076 2.52158,-5.9003 -1.33273,-7.5323 -0.42157,-0.1785 -0.85824,-0.2607 -1.3038,-0.2631 z m 43.45937,19.9678 c -2.05721,2.3614 -9.80282,13.2067 -11.6396,15.2125 -1.83682,2.0055 -0.32631,4.648 2.07377,6.1273 2.40009,1.4795 6.07205,1.7954 7.81089,0.3018 1.73881,-1.4935 10.96781,-13.9232 10.96781,-13.9232 z m 14.78824,49.4058 c -0.75061,-0.011 -1.4494,0.2293 -2.12442,0.6961 -1.54292,1.0668 -5.77945,5.6752 -7.34684,7.368 -1.56742,1.6926 -4.88865,6.7879 -9.68881,11.3967 l 12.92169,3.2701 c 0,0 10.31031,-15.264 11.26546,-16.9711 0.95512,-1.7068 0.3184,-2.8022 -1.81229,-4.4095 -1.19851,-0.9042 -2.24971,-1.3356 -3.21479,-1.3503 z" fill="#f7f5a8" transform="translate(38.785135,74.82095) translate(722.56059,-5337.7044) translate(24.947078,2.6161333) translate(157.83546,5.5604752)"/>
        <path style="-inkscape-stroke:none" d="m -906.46843,5308.9118 c -1.10341,3e-4 -2.5823,1.359 -3.72742,2.2526 -1.46579,1.1436 -10.15037,8.5338 -12.81938,10.5668 l 4.93769,8.2848 c 6.2677,-4.8331 13.54291,-8.4269 17.1514,-15.3206 0.65499,-1.2513 -3.6471,-4.2682 -4.71909,-5.4244 -0.23449,-0.253 -0.51425,-0.3593 -0.8232,-0.3592 z m 45.9822,7.7711 c -3.42202,3.9999 -10.94677,14.2385 -12.14447,15.4683 -1.19771,1.2298 -0.17982,3.9389 1.25315,5.0943 1.43296,1.1553 1.84396,2.9495 3.42666,2.4774 1.58269,-0.472 8.28951,-5.4643 8.60826,-5.8322 1.62033,-1.8706 -1.1436,-17.2078 -1.1436,-17.2078 z m 25.34316,53.4391 c -0.31365,0 -0.58367,0.05 -0.7953,0.168 -7.79987,4.6974 -14.48442,16.9292 -21.88962,22.4312 l 9.83351,8.2052 c 0,0 9.45069,-9.9249 13.52114,-14.486 4.07045,-4.5609 9.03779,-10.4575 7.34477,-12.1522 -1.48141,-1.4829 -5.81899,-4.1527 -8.0145,-4.1662 z m 39.6813,1.7214 c -3.35002,4.4982 -7.31135,10.3618 -9.5095,12.8876 -3.80371,4.3707 1.98582,7.2998 4.29121,7.2998 2.30537,0 7.97582,-5.6841 8.4801,-6.4162 0.50433,-0.7323 -3.26181,-13.7712 -3.26181,-13.7712 z m 19.49958,57.9122 c -0.59853,-0.01 -1.15541,0.093 -1.63297,0.324 -1.91029,0.9248 -6.12664,5.9703 -10.22418,9.8749 -4.4254,4.217 -8.95602,8.7052 -10.89081,11.0809 l 6.65592,13.3088 c 0,0 15.01408,-16.5465 18.19786,-19.7755 3.18377,-3.229 5.37185,-10.3648 3.36362,-12.3135 -1.50616,-1.4615 -3.67384,-2.4744 -5.46944,-2.4996 z m 37.50107,6.1857 c -1.42044,2.6741 -5.78233,15.4772 -8.05997,18.2082 -2.27761,2.7313 0.56337,6.1877 2.42466,6.8135 1.86129,0.626 3.99233,-0.7963 5.3883,-2.5177 1.39597,-1.7211 5.67976,-7.215 5.67976,-7.215 z" fill="#89c288" transform="translate(38.785135,74.82095) translate(722.56059,-5337.7044) translate(24.947078,2.6161333) translate(157.83546,5.5604752)"/>
    </g>
    <path d="m -581.60577,5509.263 c -0.33592,-0.908 -0.32738,-3.3486 0.0179,-5.4233 1.17551,-7.0431 1.88724,-13.3835 1.56506,-13.9416 -0.17673,-0.3059 -1.54899,-0.3644 -3.04959,-0.1302 -3.16912,0.4952 -22.61072,-1.4476 -29.90058,-2.9876 -6.95307,-1.469 -16.09315,-6.3849 -20.04584,-10.7813 -9.45734,-10.5187 -12.65956,-24.6856 -9.69884,-42.9092 2.19598,-13.5168 2.41398,-15.1077 2.11267,-15.4213 -0.16728,-0.1737 -5.2086,0.2451 -11.20301,0.9313 -14.78211,1.6928 -20.20087,1.5968 -27.38808,-0.4849 -7.62826,-2.2094 -12.97393,-5.4879 -19.69568,-12.0789 -6.72638,-6.5958 -8.70633,-10.485 -9.13651,-17.9473 -0.28313,-4.9116 1.34059,-22.203 2.47,-26.3044 0.39558,-1.4363 0.0501,-1.479 -12.01714,-1.479 -10.95975,0 -13.07824,-0.2043 -17.97053,-1.7326 -12.77746,-3.9918 -21.94141,-10.5799 -28.75853,-20.6757 -9.34591,-13.8404 -8.7585,-23.5178 3.23973,-53.3718 1.83386,-4.5632 3.33433,-8.3916 3.33433,-8.5075 0,-0.1148 -2.24615,-0.4437 -4.99151,-0.7282 -9.53975,-0.9888 -21.98809,-3.3937 -23.04635,-4.4517 -1.89014,-1.8902 0.88022,-2.1186 15.72516,-1.2949 7.77963,0.4314 14.389,0.6336 14.68756,0.449 0.29861,-0.1839 0.89608,-1.6473 1.32779,-3.2504 0.43176,-1.6034 1.59947,-3.8353 2.59497,-4.9602 1.53722,-1.7372 1.9259,-1.8782 2.57852,-0.9364 0.69784,1.0073 0.60227,2.5811 -0.49551,8.1648 -0.34066,1.7328 -0.0337,1.9846 3.94417,3.2343 9.62147,3.0223 27.28233,12.936 35.69958,20.039 6.64879,5.6108 9.75688,10.3956 12.01138,18.4906 1.47338,5.2905 1.63338,7.4721 1.54366,21.0433 -0.0546,8.3273 -0.28962,16.1506 -0.52114,17.3846 l -0.42104,2.2439 h 14.60492 c 9.06812,0 16.42717,0.377 19.41155,0.9787 17.26161,3.4805 27.57904,13.5215 29.59109,28.7991 0.77405,5.8773 0.0411,22.0799 -1.20314,26.5825 -0.45761,1.6567 -0.43725,1.6605 6.46688,1.2646 3.80923,-0.2196 8.08283,-0.5417 9.49687,-0.7181 4.52232,-0.5647 12.70233,1.1286 17.36948,3.5949 2.7407,1.4484 7.0987,4.9914 11.50791,9.3562 5.91887,5.8592 7.61773,8.0873 10.23693,13.4261 4.49921,9.1707 6.06408,17.2112 6.53863,33.5966 0.37999,13.1183 0.41789,13.3722 1.96368,13.1727 16.90707,-2.1811 19.99355,-2.1075 20.8201,0.4967 0.71445,2.2514 -1.49079,4.2353 -5.3511,4.8142 -2.63968,0.3959 -3.91606,1.1496 -6.26856,3.7017 -1.62474,1.7627 -3.55295,3.3951 -4.28495,3.6274 -0.73202,0.2324 -1.49674,1.0563 -1.6994,1.8314 -0.20253,0.7749 -2.09268,2.5155 -4.20002,3.8678 -3.1316,2.0094 -4.12575,3.1896 -5.44233,6.4602 -1.79218,4.452 -3.1531,5.4398 -4.07208,2.9554 z m 10.01589,-15.2962 c 2.65807,-1.2294 5.30843,-3.6054 5.36173,-4.8068 0.0439,-0.9838 -7.3946,-0.6265 -7.69921,0.3699 -0.57357,1.8763 -1.1028,5.731 -0.78684,5.731 0.17928,0 1.58528,-0.5822 3.12432,-1.2941 z m -7.33572,-17.5387 c 0.22871,-6.1704 0.11673,-11.0541 -0.075,-15.0562 0.12845,-1.6491 -0.34619,-2.968 -1.29515,-2.2758 -1.92724,3.0791 -5.17077,6.6067 -6.07456,6.6067 -0.36278,0 -0.87358,-0.674 -1.13511,-1.4978 -0.3257,-1.0263 0.7263,-3.747 3.34062,-8.6398 l 3.81608,-7.1419 c -0.8616,-2.6029 -1.71453,-5.7705 -2.58466,-7.8088 -0.86086,-2.0167 -3.04645,-4.0252 -3.35382,-4.2152 -0.30734,-0.189 -1.10747,0.7471 -1.77801,2.0821 -1.527,3.0407 -12.46502,17.6064 -17.05417,22.7107 -2.42161,2.6933 -3.90216,3.7598 -5.00115,3.603 -3.34922,-0.478 -2.21551,-3.142 6.16908,-14.4977 7.55907,-10.2375 13.34496,-18.9691 13.34496,-20.1391 0,-0.6436 -7.52971,-7.7611 -8.09137,-7.7611 -0.24211,0 -2.78169,2.6712 -4.39031,5.0399 -3.4488,5.0785 -7.68937,9.0037 -9.72724,9.0037 -2.20646,0 -1.79002,-2.2952 1.01574,-5.598 2.84189,-3.3448 8.90897,-11.1762 8.90897,-11.8321 -4.71613,-3.9162 -5.70759,-2.5415 -9.75897,-3.5739 -1.5141,0.031 -2.87408,1.1138 -5.68736,4.5343 -4.72667,5.7472 -8.26636,8.5317 -9.40186,7.3963 -0.61316,-0.6133 0.0847,-2.2049 2.67502,-6.1004 1.92759,-2.8987 3.31784,-5.4573 3.08951,-5.6856 -0.5103,-0.5102 -12.89038,0.9385 -13.53599,1.5842 -0.42299,0.423 -3.15357,16.1512 -2.86441,16.4992 0.0682,0.081 1.69156,-1.1903 3.60733,-2.8279 3.90355,-3.3368 5.95994,-3.501 6.30719,-0.5041 0.19487,1.6809 -0.61794,2.6768 -5.36124,6.5697 l -5.59081,4.5887 v 5.0708 c 0.24091,4.422 0.96431,8.3026 2.58836,12.2232 l 7.78381,-8.1343 c 4.28116,-4.474 6.30841,-6.8706 8.32837,-9.4126 3.78054,-4.7572 4.93453,-5.3937 6.45647,-3.5596 0.68312,0.8231 0.67684,1.4465 -0.0275,2.773 -1.58825,2.9889 -4.10345,6.256 -11.99255,14.3688 -8.24298,8.4765 -7.90826,11.185 -5.69299,13.5865 l 6.50325,7.0498 5.12861,-5.3359 c 4.61834,-4.805 5.28561,-5.252 6.70696,-4.4914 2.74907,1.4713 1.96656,3.9873 -2.51346,8.0817 l -4.09197,3.7398 2.28298,1.1807 c 4.43806,2.3287 9.14745,2.7613 14.03915,3.4557 l 1.75001,-2.2577 c 6.41653,-8.2779 11.16724,-13.927 13.07915,-13.927 1.3766,0 1.79657,0.3938 1.79657,1.684 0,2.2052 0.22903,2.9635 -6.73351,10.6583 -3.18554,3.5209 -4.03073,4.5377 -4.03073,4.779 6.19628,0.169 9.70305,-0.063 13.50446,-0.327 l 5.40278,-0.3749 z m -83.66815,-65.3769 c 0.75176,-1.1699 4.11393,-5.0207 7.4715,-8.5575 6.27762,-6.6122 8.44393,-7.6332 8.93081,-4.2089 0.19002,1.3357 -1.11403,3.0897 -5.72541,7.7009 -3.2842,3.2844 -5.85224,6.0904 -5.70677,6.2359 0.14532,0.1456 4.15314,-0.2451 8.90602,-0.8683 4.75289,-0.6231 8.75675,-1.1329 8.89754,-1.1329 0.63096,0 1.88673,-9.8841 1.88673,-14.8499 v -5.4851 l -2.92884,3.2042 c -2.86859,3.138 -4.46785,3.4976 -4.46414,1.0034 5.4e-4,-0.6878 1.62701,-3.6922 3.61334,-6.6768 l 3.61138,-5.4266 -0.98717,-3.742 c -1.83847,-6.9689 -2.29899,-8.543 -6.24513,-4.4313 -1.96826,2.0509 -4.27191,2.4334 -4.91257,0.7635 -0.23395,-0.6093 0.58414,-2.3625 1.8449,-3.9544 l 2.9933,-3.5227 -2.21835,-2.1253 c -1.76991,-1.6956 -7.08693,-5.3359 -8.09796,-4.7076 -0.69697,0.4332 -3.99695,4.417 -7.33337,8.8532 -4.6323,6.1589 -6.46756,8.0655 -7.76458,8.0655 -1.15347,0 -1.76852,-0.4907 -1.91706,-1.5291 -0.26365,-1.8442 4.45201,-9.263 9.62026,-14.7718 l 2.4586,-2.6206 c -4.64057,-0.9581 -7.07645,-0.8791 -12.14679,-0.476 -2.51337,-0.069 -3.05634,0.3488 -7.60103,5.8422 -2.69183,3.2537 -5.467,5.9243 -6.16706,5.9348 -0.74872,0 -1.81766,1.2019 -2.5961,2.8918 -0.72789,1.5799 -3.83923,5.2624 -6.91401,8.1832 l -5.59059,5.3103 0.51646,3.4448 c 1.56454,5.7749 2.54837,6.9924 5.88381,11.0905 l 1.87522,-2.7765 c 3.09821,-4.5873 18.77245,-20.3633 19.87158,-20.0009 0.55457,0.1839 1.1063,0.9912 1.22606,1.7964 0.28623,1.925 -6.95647,11.0461 -13.78567,17.3608 -2.9089,2.6898 -6.0697,5.7469 -5.82296,6.0454 3.78703,4.5818 9.61816,7.2686 9.90425,6.7791 0.0697,-0.1197 4.10489,-4.8459 8.96712,-10.5036 4.86227,-5.658 9.81092,-11.4815 10.99697,-12.9412 4.81162,-5.9214 8.91568,-9.6789 10.57184,-9.6789 2.88237,0 1.99596,2.374 -3.62403,9.7045 -5.79365,7.5576 -16.30508,19.904 -19.42005,22.8106 -1.77826,1.6592 -1.83569,1.8743 -0.62743,2.3514 0.73148,0.2886 5.27769,1.662 7.37299,1.6906 3.41353,0.046 3.95183,-0.1686 5.17639,-2.0751 z m -27.89772,-41.5023 c 1.06259,0 1.53385,-0.4747 1.53385,-1.5444 0,-0.8496 1.49748,-3.2563 3.32771,-5.3486 1.83021,-2.0924 3.32764,-4.1067 3.32764,-4.4768 0,-0.3823 -1.96097,-0.4675 -4.54538,-0.1966 -2.49994,0.2615 -5.57802,0.4804 -6.84017,0.4866 -1.26218,0 -2.76576,0.3092 -3.34127,0.6737 -0.97448,0.6167 -3.65391,12.8266 -3.72842,16.99 -0.0284,1.5957 0.41434,1.3511 4.3502,-2.4031 2.44083,-2.3283 5.06144,-4.1799 5.91584,-4.1799 z m -30.08517,-20.4221 c 4.36602,-5.0045 5.36246,-6.1686 6.90604,-4.6253 1.04104,1.0413 0.85102,1.5268 -1.99718,5.1041 l -3.14769,3.9533 c 3.64546,0.3814 7.2796,-0.2342 10.90865,-0.29 1.27099,0 2.69165,-0.2556 3.15695,-0.5544 0.46531,-0.2988 1.09144,-3.1728 1.39146,-6.3861 l 0.36769,-10.7264 c -2.00717,2.1428 -4.06219,4.2774 -6.53596,5.8834 -3.03692,1.9399 -3.96907,0.5752 -2.35407,-2.0742 0.5476,-0.8983 4.36363,-4.8234 5.37473,-6.0646 2.8835,-3.5398 3.39805,-4.6997 3.80276,-8.5718 -0.10548,-3.0308 -0.40806,-4.8535 -0.78586,-9.1441 -0.46361,-1.9749 -0.56732,-4.385 -2.17766,-3.2705 -0.97589,0.6753 -4.27697,3.0918 -5.43768,4.1351 -4.23126,3.803 -8.88926,0.4811 -3.02699,-4.3137 2.20691,-1.8051 4.9992,-5.1455 6.25076,-6.8827 0.77185,-1.0714 -0.94826,-2.761 -1.74875,-3.7904 -1.8985,-2.5288 -3.3405,-3.345 -5.62654,-5.4214 l -2.63501,-2.1024 -7.53285,7.3043 c -13.487,13.0778 -19.73433,17.4687 -19.73433,13.8699 0,-0.6313 5.14223,-6.2607 11.42722,-12.5094 11.80348,-11.7356 11.71603,-11.5786 7.98742,-13.6296 -2.76336,-1.52 -0.2331,-0.6739 -8.26668,-5.2517 l -6.70106,4.9458 c -3.72817,2.7516 -6.45266,3.4567 -6.45266,0.9763 0,-0.9084 1.04746,-2.4921 2.40333,-3.6336 l 6.08286,-4.3832 -8.1924,-3.7559 c -2.08059,-0.9539 -4.94338,-1.0796 -4.94338,-0.4503 0,0.1941 -0.81595,2.5207 -1.8132,5.1703 l -5.88775,14.2502 8.87655,-5.4106 c 0.95949,-0.5848 2.25506,-0.9103 2.92245,-0.6541 1.4611,0.5607 1.54638,1.6289 -0.30861,3.5921 -1.11827,1.1836 -10.10914,6.9831 -12.76134,8.9022 -1.94144,4.0819 -3.16863,9.0288 -3.22176,13.2851 -0.0806,6.4549 1.10443,10.2032 1.39858,10.6792 0.35124,0.568 2.80278,-1.1678 7.13767,-5.0547 3.63154,-3.256 6.87185,-5.9201 7.20068,-5.9201 1.00359,0 2.3726,1.7056 2.3726,2.9558 0,1.4021 -3.91935,5.2436 -9.78128,9.5874 l -4.2352,3.1384 2.13924,3.1091 c 3.55291,5.0134 6.63063,7.7511 9.30998,9.3867 1.88523,1.0609 1.99091,0.9702 16.31745,-13.9821 7.93092,-8.2773 12.55564,-12.472 13.23914,-12.872 1.91286,-1.1192 3.97872,1.1812 2.67266,2.9764 -3.09153,4.2489 -12.74695,14.7055 -18.77163,20.5405 l -7.03768,6.8162 4.32442,2.6444 c 4.42115,2.7036 8.71685,2.168 11.60881,2.5572 1.41372,0.1902 2.81362,-0.9187 5.5351,-4.0381 z" transform="translate(38.785135,74.82095) translate(722.56059,-5337.7044) translate(24.947078,2.6161333)"/>
</svg>
